<svg width="32" height="34" viewBox="0 0 32 34" fill="none" xmlns="http://www.w3.org/2000/svg">
<path d="M17.5833 1.16666H18.0151C23.1786 1.16666 25.7604 1.16666 27.5534 2.4299C28.0671 2.79183 28.5232 3.22107 28.9077 3.70456C30.2499 5.39205 30.2499 7.82197 30.2499 12.6818V16.7121C30.2499 21.4038 30.2499 23.7496 29.5074 25.6232C28.3138 28.6352 25.7895 31.0111 22.5892 32.1345C20.5985 32.8333 18.1061 32.8333 13.1211 32.8333C10.2726 32.8333 8.84834 32.8333 7.71082 32.434C5.88209 31.792 4.43961 30.4344 3.75753 28.7133C3.33325 27.6427 3.33325 26.3022 3.33325 23.6212V17" stroke="black" stroke-width="2" stroke-linecap="round" stroke-linejoin="round"/>
<path d="M30.2501 17C30.2501 19.9148 27.8871 22.2778 24.9723 22.2778C23.9181 22.2778 22.6754 22.0931 21.6504 22.3677C20.7398 22.6117 20.0285 23.323 19.7844 24.2337C19.5098 25.2586 19.6945 26.5014 19.6945 27.5556C19.6945 30.4704 17.3316 32.8333 14.4167 32.8333" stroke="black" stroke-width="2" stroke-linecap="round" stroke-linejoin="round"/>
<path d="M14.4167 7.49999L1.75 7.49999M8.08333 1.16666V13.8333" stroke="black" stroke-width="2" stroke-linecap="round"/>
</svg>
